<svg xmlns="http://www.w3.org/2000/svg" xmlns:xlink="http://www.w3.org/1999/xlink" width="3304.833" height="492.417" viewBox="0 0 3304.833 492.417"><defs><filter id="a" x="0" y="0" width="3304.833" height="340.939" filterUnits="userSpaceOnUse"><feOffset dx="23" dy="-6" input="SourceAlpha"/><feGaussianBlur stdDeviation="16" result="b"/><feFlood flood-opacity="0.161"/><feComposite operator="in" in2="b"/><feComposite in="SourceGraphic"/></filter><filter id="c" x="86.621" y="126.255" width="3083.526" height="366.162" filterUnits="userSpaceOnUse"><feOffset dy="3" input="SourceAlpha"/><feGaussianBlur stdDeviation="11.5" result="d"/><feFlood flood-opacity="0.161"/><feComposite operator="in" in2="d"/><feComposite in="SourceGraphic"/></filter></defs><g transform="translate(189.83 -938.583)"><g transform="matrix(1, 0, 0, 1, -189.83, 938.58)" filter="url(#a)"><path d="M4218.06,889.274c-130.363,3.829-245.2-35.53-290.324-20.535-61.868,20.555-120.057,68.671-218.9,55.688-1.5-.2-80.614-14.483-81.871-14.752-58.313-12.456-93.136-28.716-175.055-57.3-117.684-41.059-340.138-96.422-498-71.235-38.972,6.218-77.806,13.842-115.754,21.84-102.3,21.561-198.138,45.868-272.655,52.876a174.564,174.564,0,0,0-37.022,7.408c-64.137,20.179-89.94,65.248-461.4,3.729-131.877-21.842-211.856,41.649-309.12,33.413-136-11.517-297.813-39.824-377.182-34.8-71.4,4.515-117.42,21.014-146.89,38.968a164.425,164.425,0,0,0-16.149,11.171v81.681c94.074-19.2,208.708-16.8,294.07-10.559a2923.429,2923.429,0,0,1,385.278,3.37c74.281-9.783,157.752-26.824,241.239-55.95C2363.38,855.77,2865.75,988.12,2865.75,988.12s12.44,4.513,36.174,10.9c135.015-15.151,353-28.231,562.339,8.456q39.506,6.925,76.43,12.276c9.928-1.492,19.917-3.042,30.025-4.716,548.911-90.91,777.575-45.372,855.855-18.181v-54.58C4361.342,919.84,4286.1,887.276,4218.06,889.274Z" transform="translate(-1192.74 -720.81)" fill="#8a2b0d"/></g><g transform="matrix(1, 0, 0, 1, -189.83, 938.58)" filter="url(#c)"><path d="M2906.089,55.333c-124.053,3.567-173.053,38.908-294.831,50.58-100.719,9.654-76.914,53.823-208.306,57.714-1.676.05-133.4-13.367-134.6-13.618-55.49-11.6-45.679-47.26-179.462-62.253C1880.586,64.411,1803.273-19.359,1653.052,4.1,1516.007,25.51,1464.8,149.5,1335.788,152.6c-269.194,6.485-35.252-47.987-464.68-98.567-138.98-16.37-324.053,62.792-416.61,55.12C325.078,98.427,222.374,27.961,146.847,32.637,76.623,36.984,30.207,73.207,0,113.655V291.026l28.438-4.52c77.783-5.264,115.594-7.177,181.765-16.741s61-22.954,158.119-17.215,116.016,19.185,210.546,16.287,236.324,6.723,264.682,0,56.719-19.05,207.965-17.669,198.512.317,245.776-.107,37.812-9.139,122.889,0,106.02,1.106,199.532,15.644,755.215,8.8,755.215,8.8c56.719,0,75.625,4.79,151.248,11s170.153,5.971,198.512,9.917c27.915,3.885,220.7-9.262,289.837-.438V177.833C2982.506,126.207,2958.67,53.822,2906.089,55.333Z" transform="translate(3135.65 454.92) rotate(180)" fill="#e9d9bd"/></g><g transform="translate(-120.651 1039.063)"><path d="M3170.427,1036.833s-163.8,30.386-446.786-20.522q-36.014-6.479-74.575-14.781c-204.253-44.175-416.936-28.425-548.671-10.183-80.2,11.106-130.41,23.135-130.41,23.135s-258.488,50.29-727.273-19c-41.921-6.2-82.875-11.022-122.743-14.711a2312.967,2312.967,0,0,0-375.916-4.057c-136.723,9.724-237.665,29.4-286.931,40.621v68.172H3577.6v-71.474C3379.566,999.113,3170.427,1036.833,3170.427,1036.833Z" transform="translate(-457.121 -970.957)" fill="#4d80bf"/></g><g transform="translate(2864.027 1266.738) rotate(180)"><path d="M2477.151,65.875s-149.543,30.386-407.9-20.522q-32.879-6.479-68.084-14.781C1814.691-13.6,1620.519,2.147,1500.25,20.389c-73.217,11.106-119.06,23.135-119.06,23.135s-235.99,50.29-663.974-19c-38.272-6.2-75.662-11.022-112.06-14.711a1928.538,1928.538,0,0,0-343.2-4.057C137.134,15.481,44.978,35.161,0,46.378V114.55H2848.881V43.077C2668.087,28.155,2477.151,65.875,2477.151,65.875Z" transform="translate(0 0)" fill="#4d80bf"/></g></g></svg>